<svg xmlns="http://www.w3.org/2000/svg" width="150" height="32" viewBox="0 0 150 32">
    <path fill="#110553" fill-rule="nonzero" d="M46 12.49C46 5.456 51.178 0 58.401 0c4.361 0 8.21 2.23 10.255 5.66l-4.054 2.367c-1.158-2.127-3.474-3.43-6.2-3.43-4.669 0-7.734 3.26-7.734 7.89 0 4.598 3.065 7.858 7.733 7.858 2.725 0 5.077-1.305 6.201-3.397l4.054 2.367c-2.01 3.43-5.86 5.66-10.255 5.66C51.178 24.98 46 19.49 46 12.49zm25.875-9.187L76.563.78v24.196h-4.688V3.303zM92.969 16.39c0-2.79-1.996-4.683-4.705-4.683-2.672 0-4.67 1.893-4.67 4.683s1.995 4.683 4.67 4.683c2.709 0 4.705-1.892 4.705-4.683zm4.687-8.888V24.5h-4.521v-2.007c-1.261 1.53-3.154 2.483-5.713 2.483-4.66 0-8.516-3.91-8.516-8.977 0-5.066 3.855-8.975 8.516-8.975 2.56 0 4.452.953 5.713 2.483V7.502h4.521zm13.281.614v4.365c-2.572 0-5.07 1.336-5.07 4.942v7.553h-4.305V7.805h4.304v3.301c1.234-2.43 2.97-2.99 5.072-2.99zm2.344-.311h4.688v16.39h-4.688V7.805zm25.834 16.704l-7.084-16.704h4.873l4.492 11.596 3.835-11.596H150l-6.002 16.104c-1.428 4.06-3.61 7.143-6.287 8.091l-4.32-2.5.109-.035c4.582-1.46 5.615-4.954 5.615-4.956zm-12.674.42c-3.341-.387-4.564-2.26-4.566-5.76V3.26L126.29.78V7.6h3.905v4.208h-3.905v7.361c0 1.832 1.623 2.14 4.96 1.731l-1.091 3.523c-1.285.542-2.584.623-3.718.507zM2.344 7.806L12 12.926l-9.441 4.879c-3.377-5.132-.215-10-.215-10zM33.032 1s2.966 4.316 2.966 12.41c0 0 .205 5.529-3.295 11.59L12 12.937 33.032 1zm80.935.466a2.346 2.346 0 0 1 3.316 0 2.341 2.341 0 0 1 0 3.312 2.346 2.346 0 0 1-3.316 0 2.341 2.341 0 0 1 0-3.312z"/>
</svg>
