<svg xmlns="http://www.w3.org/2000/svg" width="1000" height="697" viewBox="0 0 1000 697">
    <path fill="none" fill-rule="nonzero" stroke="#F6BA28" stroke-width="1.5" d="M903.873 695.973c42.237-73.242 69.144-149.004 83.714-223.464 5.292-27.048 8.614-52.322 10.343-75.341 1.141-15.191 1.445-27.163 1.287-35.433-.007-.375-.014-.698-.022-.968l-.01-.35c0-102.76-16.153-192.292-43.07-268.113-9.42-26.53-19.51-49.45-29.599-68.699-3.53-6.734-6.806-12.527-9.745-17.371a177.431 177.431 0 0 0-2.725-4.361 99.654 99.654 0 0 0-.574-.877L303.657 346.77 38.005 196.14l-.033.052c-.342.528-.739 1.16-1.186 1.898a140.18 140.18 0 0 0-4.252 7.58c-4.406 8.407-8.814 18.42-12.93 30.011C7.84 268.82.78 307.956.778 352.908c-.003.092-.008.278-.014.557-.068 3.606.064 8.832.562 15.467.756 10.058 2.208 21.103 4.52 32.924 6.344 32.42 18.04 65.404 36.378 97.302L304.002 346.77l599.871 349.204z"/>
</svg>
