<svg xmlns="http://www.w3.org/2000/svg" width="1404" height="232" viewBox="0 0 1404 232">
    <g fill="none" fill-rule="evenodd">
        <path fill="#FCD6DA" d="M200 170c0-4.695-3.805-8.5-8.5-8.5s-8.5 3.805-8.5 8.5 3.805 8.5 8.5 8.5 8.5-3.805 8.5-8.5M176 96.5c0-2.761-2.238-5-5-5s-5 2.239-5 5 2.238 5 5 5 5-2.239 5-5" transform="rotate(-180 702 116)"/>
        <path fill="#1C7059" d="M1192 33.5c0-3.866-3.134-7-7-7s-7 3.134-7 7 3.134 7 7 7 7-3.134 7-7M667 155.5c0-3.866-3.134-7-7-7s-7 3.134-7 7 3.134 7 7 7 7-3.134 7-7" transform="rotate(-180 702 116)"/>
        <path fill="#F6BA28" d="M157 52c0-5.247-4.253-9.5-9.5-9.5S138 46.753 138 52s4.253 9.5 9.5 9.5 9.5-4.253 9.5-9.5" transform="rotate(-180 702 116)"/>
        <path fill="#E71D72" d="M591 76.5c0-4.97-4.03-9-9-9s-9 4.03-9 9 4.03 9 9 9 9-4.03 9-9" transform="rotate(-180 702 116)"/>
        <path fill="#4E58E7" d="M468 47c0-3.038-2.462-5.5-5.5-5.5S457 43.962 457 47s2.462 5.5 5.5 5.5 5.5-2.462 5.5-5.5" transform="rotate(-180 702 116)"/>
        <path fill="#110553" d="M318 168.5c0-3.314-2.686-6-6-6s-6 2.686-6 6 2.686 6 6 6 6-2.686 6-6" transform="rotate(-180 702 116)"/>
        <path fill="#4E58E7" d="M632 105c0-3.038-2.462-5.5-5.5-5.5s-5.5 2.462-5.5 5.5 2.462 5.5 5.5 5.5 5.5-2.462 5.5-5.5" transform="rotate(-180 702 116)"/>
        <path fill="#1C7059" d="M258 22.5c0-4.418-3.358-8-7.5-8-4.142 0-7.5 3.582-7.5 8s3.358 8 7.5 8c4.142 0 7.5-3.582 7.5-8" transform="rotate(-180 702 116)"/>
        <path fill="#F6BA28" d="M437 187.5c0-2.762-2.238-5-5-5s-5 2.238-5 5 2.238 5 5 5 5-2.238 5-5" transform="rotate(-180 702 116)"/>
        <path fill="#1C7059" d="M945 142c0-4.695-3.805-8.5-8.5-8.5s-8.5 3.805-8.5 8.5 3.805 8.5 8.5 8.5 8.5-3.805 8.5-8.5" transform="rotate(-180 702 116)"/>
        <path fill="#F6BA28" d="M607 185c0-4.695-3.805-8.5-8.5-8.5s-8.5 3.805-8.5 8.5 3.805 8.5 8.5 8.5 8.5-3.805 8.5-8.5" transform="rotate(-180 702 116)"/>
        <path fill="#FCD6DA" d="M1404 170.5c0-3.866-3.134-7-7-7s-7 3.134-7 7 3.134 7 7 7 7-3.134 7-7" transform="rotate(-180 702 116)"/>
        <path fill="#4E58E7" d="M363 90.5c0-2.761-2.238-5-5-5s-5 2.239-5 5 2.238 5 5 5 5-2.239 5-5" transform="rotate(-180 702 116)"/>
        <path fill="#F6BA28" d="M19 58.5c0-4.418-3.582-8-8-8s-8 3.582-8 8 3.582 8 8 8 8-3.582 8-8" transform="rotate(-180 702 116)"/>
        <path fill="#4E58E7" d="M11 96c0-3.038-2.462-5.5-5.5-5.5S0 92.962 0 96s2.462 5.5 5.5 5.5S11 99.038 11 96M218 182c0-2.485-2.015-4.5-4.5-4.5s-4.5 2.015-4.5 4.5 2.015 4.5 4.5 4.5 4.5-2.015 4.5-4.5" transform="rotate(-180 702 116)"/>
        <path fill="#F6BA28" d="M1349 78.5c0-4.97-4.03-9-9-9s-9 4.03-9 9 4.03 9 9 9 9-4.03 9-9" transform="rotate(-180 702 116)"/>
        <path fill="#4E58E7" d="M134 6.5c0-3.314-2.686-6-6-6s-6 2.686-6 6 2.686 6 6 6 6-2.686 6-6" transform="rotate(-180 702 116)"/>
        <path fill="#1C7059" d="M205 109.5c0-3.314-2.686-6-6-6s-6 2.686-6 6 2.686 6 6 6 6-2.686 6-6M89 11c0-2.485-2.015-4.5-4.5-4.5S80 8.515 80 11s2.015 4.5 4.5 4.5S89 13.485 89 11" transform="rotate(-180 702 116)"/>
        <path fill="#110553" d="M255 81c0-2.485-2.015-4.5-4.5-4.5S246 78.515 246 81s2.015 4.5 4.5 4.5 4.5-2.015 4.5-4.5" transform="rotate(-180 702 116)"/>
        <path fill="#FCD6DA" d="M867 123c0-4.142-3.358-7.5-7.5-7.5-4.142 0-7.5 3.358-7.5 7.5 0 4.142 3.358 7.5 7.5 7.5 4.142 0 7.5-3.358 7.5-7.5" transform="rotate(-180 702 116)"/>
        <path fill="#E71D72" d="M51 36c0-2.485-2.015-4.5-4.5-4.5S42 33.515 42 36s2.015 4.5 4.5 4.5S51 38.485 51 36" transform="rotate(-180 702 116)"/>
        <path fill="#4E58E7" d="M69 86c0-2.485-2.015-4.5-4.5-4.5S60 83.515 60 86s2.015 4.5 4.5 4.5S69 88.485 69 86" transform="rotate(-180 702 116)"/>
        <path fill="#F6BA28" d="M802 221.5c0-4.97-4.03-9-9-9s-9 4.03-9 9 4.03 9 9 9 9-4.03 9-9" transform="rotate(-180 702 116)"/>
        <path fill="#4E58E7" d="M477 198.5c0-3.866-3.134-7-7-7s-7 3.134-7 7 3.134 7 7 7 7-3.134 7-7" transform="rotate(-180 702 116)"/>
        <path fill="#1C7059" d="M406 43.5c0-3.866-3.134-7-7-7s-7 3.134-7 7 3.134 7 7 7 7-3.134 7-7" transform="rotate(-180 702 116)"/>
        <path fill="#E71D72" d="M1048 173c0-4.695-3.805-8.5-8.5-8.5s-8.5 3.805-8.5 8.5 3.805 8.5 8.5 8.5 8.5-3.805 8.5-8.5" transform="rotate(-180 702 116)"/>
        <path fill="#FCD6DA" d="M228 9.5c0-4.418-3.582-8-8-8s-8 3.582-8 8 3.582 8 8 8 8-3.582 8-8" transform="rotate(-180 702 116)"/>
        <path fill="#1C7059" d="M471 224.5c0-3.866-3.134-7-7-7s-7 3.134-7 7 3.134 7 7 7 7-3.134 7-7" transform="rotate(-180 702 116)"/>
    </g>
</svg>
